mtllib torso.mtl

g Opdavi11

v -0.935 0.935 0.5 
v -0.935 -0.935 0.5 
v 0.935 -0.935 0.5 
v 0.935 0.935 0.5 
v -0.935 1 0.435 
v -1 0.935 0.435 
v -1 -0.935 0.435 
v -0.935 -1 0.435 
v 0.935 -1 0.435 
v 1 -0.935 0.435 
v 1 0.935 0.435 
v 0.935 1 0.435 
v -0.935 1 0.435 
v -0.935 1 -0.435 
v -1 0.935 -0.435 
v -1 -0.935 -0.435 
v -0.935 -1 -0.435 
v -0.935 -1 0.435 
v -0.935 -1 0.435 
v -0.935 -1 -0.435 
v 0.935 -1 -0.435 
v 0.935 -1 0.435 
v 0.935 -1 0.435 
v 0.935 -1 -0.435 
v 1 -0.935 -0.435 
v 1 -0.935 0.435 
v 1 0.935 -0.435 
v 1 0.935 0.435 
v 0.935 1 -0.435 
v 0.935 1 0.435 
v 0.935 1 0.435 
v 0.935 1 -0.435 
v -0.935 1 -0.435 
v -0.935 1 0.435 
v -0.935 1 -0.435 
v -0.935 0.935 -0.5 
v -0.935 -0.935 -0.5 
v -0.935 -1 -0.435 
v 0.935 -0.935 -0.5 
v 0.935 -1 -0.435 
v 0.935 0.935 -0.5 
v 0.935 1 -0.435 

vn 0 0 1 
vn 0 0 1 
vn 0 0 1 
vn 0 0 1 
vn 0 1 0 
vn -1 0 0 
vn -1 0 0 
vn 0 -1 0 
vn 0 -1 0 
vn 1 0 0 
vn 1 0 0 
vn 0 1 0 
vn 0 1 0 
vn 0 1 0 
vn -1 0 0 
vn -1 0 0 
vn 0 -1 0 
vn 0 -1 0 
vn 0 -1 0 
vn 0 -1 0 
vn 0 -1 0 
vn 0 -1 0 
vn 0 -1 0 
vn 0 -1 0 
vn 1 0 0 
vn 1 0 0 
vn 1 0 0 
vn 1 0 0 
vn 0 1 0 
vn 0 1 0 
vn 0 1 0 
vn 0 1 0 
vn 0 1 0 
vn 0 1 0 
vn 0 1 0 
vn 0 0 -1 
vn 0 0 -1 
vn 0 -1 0 
vn 0 0 -1 
vn 0 -1 0 
vn 0 0 -1 
vn 0 1 0 

vt 0.115723 0.496094 
vt 0.0249022 0.496094 
vt 0.0249022 0.253906 
vt 0.115723 0.253906 
vt 0.118652 0.496094 
vt 0.115723 0.503906 
vt 0.0249022 0.503906 
vt 0.0219727 0.496094 
vt 0.0219727 0.253906 
vt 0.0249022 0.246094 
vt 0.115723 0.246094 
vt 0.118652 0.253906 
vt 0.118652 0.503906 
vt 0.118652 0.621094 
vt 0.115723 0.621094 
vt 0.0249022 0.621094 
vt 0.0219727 0.621094 
vt 0.0219727 0.503906 
vt 0.337646 0.240234 
vt 0.337646 0.357422 
vt 0.246826 0.357422 
vt 0.246826 0.240234 
vt 0.0219727 0.996094 
vt 0.0219727 0.878906 
vt 0.0249022 0.878906 
vt 0.0249022 0.996094 
vt 0.115723 0.878906 
vt 0.115723 0.996094 
vt 0.118652 0.878906 
vt 0.118652 0.996094 
vt 0.14795 0.357422 
vt 0.14795 0.240234 
vt 0.238769 0.240234 
vt 0.238769 0.357422 
vt 0.118652 0.628906 
vt 0.115723 0.628906 
vt 0.0249022 0.628906 
vt 0.0219727 0.628906 
vt 0.0249022 0.871094 
vt 0.0219727 0.871094 
vt 0.115723 0.871094 
vt 0.118652 0.871094 

usemtl Opdavi11Mtl

f 1/1/1 2/2/2 3/3/3 
f 1/1/1 3/3/3 4/4/4 
f 1/1/1 5/5/5 6/6/6 
f 1/1/1 6/6/6 7/7/7 
f 1/1/1 7/7/7 2/2/2 
f 2/2/2 7/7/7 8/8/8 
f 2/2/2 8/8/8 9/9/9 
f 2/2/2 9/9/9 3/3/3 
f 3/3/3 9/9/9 10/10/10 
f 3/3/3 10/10/10 11/11/11 
f 3/3/3 11/11/11 4/4/4 
f 4/4/4 11/11/11 12/12/12 
f 4/4/4 12/12/12 5/5/5 
f 4/4/4 5/5/5 1/1/1 
f 13/13/13 14/14/14 15/15/15 
f 13/13/13 15/15/15 6/6/6 
f 6/6/6 15/15/15 16/16/16 
f 6/6/6 16/16/16 7/7/7 
f 7/7/7 16/16/16 17/17/17 
f 7/7/7 17/17/17 18/18/18 
f 19/19/19 20/20/20 21/21/21 
f 19/19/19 21/21/21 22/22/22 
f 23/23/23 24/24/24 25/25/25 
f 23/23/23 25/25/25 26/26/26 
f 26/26/26 25/25/25 27/27/27 
f 26/26/26 27/27/27 28/28/28 
f 28/28/28 27/27/27 29/29/29 
f 28/28/28 29/29/29 30/30/30 
f 31/31/31 32/32/32 33/33/33 
f 31/31/31 33/33/33 34/34/34 
f 35/35/35 36/36/36 15/15/15 
f 15/15/15 36/36/36 37/37/37 
f 15/15/15 37/37/37 16/16/16 
f 16/16/16 37/37/37 38/38/38 
f 38/38/38 37/37/37 39/39/39 
f 38/38/38 39/39/39 40/40/40 
f 40/40/40 39/39/39 25/25/25 
f 25/25/25 39/39/39 41/41/41 
f 25/25/25 41/41/41 27/27/27 
f 27/27/27 41/41/41 42/42/42 
f 42/42/42 41/41/41 36/36/36 
f 42/42/42 36/36/36 35/35/35 
f 41/41/41 39/39/39 37/37/37 
f 41/41/41 37/37/37 36/36/36 

